grf
version=1
nRows=9
nColumns=37
inDegrees=no
endheader
time	ground_force_1_vx	ground_force_1_vy	ground_force_1_vz	ground_force_1_px	ground_force_1_py	ground_force_1_pz	ground_moment_1_mx	ground_moment_1_my	ground_moment_1_mz	ground_force_2_vx	ground_force_2_vy	ground_force_2_vz	ground_force_2_px	ground_force_2_py	ground_force_2_pz	ground_moment_2_mx	ground_moment_2_my	ground_moment_2_mz	ground_force_3_vx	ground_force_3_vy	ground_force_3_vz	ground_force_3_px	ground_force_3_py	ground_force_3_pz	ground_moment_3_mx	ground_moment_3_my	ground_moment_3_mz	ground_force_4_vx	ground_force_4_vy	ground_force_4_vz	ground_force_4_px	ground_force_4_py	ground_force_4_pz	ground_moment_4_mx	ground_moment_4_my	ground_moment_4_mz
      1.95000000	      0.00000000	     -0.00000000	      0.00000000	      0.00000000	      0.00000000	      0.00000000	      0.00000000	      0.00000000	      0.00000000	      9.29506111	     57.62796402	   -393.21832275	   -344.36130446	  -1178.00503734	      0.00000000	      0.00000000	      0.00000000	   2499.42001161	      9.59022543	    -41.23680580	   -310.69747925	   -413.39903595	   -654.51422930	      0.00000000	      0.00000000	     -0.00000000	  -3556.14509162	      0.00000000	     -0.00000000	      0.00000000	      0.00000000	      0.00000000	      0.00000000	      0.00000000	      0.00000000	      0.00000000
      1.96000000	      0.00000000	     -0.00000000	      0.00000000	      0.00000000	      0.00000000	      0.00000000	      0.00000000	      0.00000000	      0.00000000	      7.67210388	     55.16348648	   -373.76037598	   -344.87702023	  -1177.53312888	      0.00000000	      0.00000000	      0.00000000	   2405.83280665	     10.77920153	    -43.39928149	   -299.91458130	   -414.03740954	   -654.86446672	      0.00000000	      0.00000000	     -0.00000000	  -3779.07374801	      0.00000000	     -0.00000000	      0.00000000	      0.00000000	      0.00000000	      0.00000000	      0.00000000	      0.00000000	      0.00000000
      1.97000000	      0.00000000	     -0.00000000	      0.00000000	      0.00000000	      0.00000000	      0.00000000	      0.00000000	      0.00000000	      0.00000000	      4.27423620	     54.91218948	   -358.25607300	   -345.93034273	  -1178.34198828	      0.00000000	      0.00000000	      0.00000000	   2261.57438803	     12.14202223	    -42.49403487	   -289.75119019	   -414.07398036	   -654.19332459	      0.00000000	      0.00000000	     -0.00000000	  -3824.78920198	      0.00000000	     -0.00000000	      0.00000000	      0.00000000	      0.00000000	      0.00000000	      0.00000000	      0.00000000	      0.00000000
      1.98000000	      0.00000000	     -0.00000000	      0.00000000	      0.00000000	      0.00000000	      0.00000000	      0.00000000	      0.00000000	      0.00000000	      4.29715729	     54.86459351	   -341.14202881	   -346.44972699	  -1178.00265849	      0.00000000	      0.00000000	      0.00000000	   2378.47559921	     12.38626515	    -39.60121263	   -277.66302490	   -414.07947261	   -654.30362904	      0.00000000	      0.00000000	     -0.00000000	  -3560.25291759	      0.00000000	     -0.00000000	      0.00000000	      0.00000000	      0.00000000	      0.00000000	      0.00000000	      0.00000000	      0.00000000
      1.99000000	      0.00000000	     -0.00000000	      0.00000000	      0.00000000	      0.00000000	      0.00000000	      0.00000000	      0.00000000	      0.00000000	      6.90450525	     53.63887024	   -324.03445435	   -349.70013056	  -1178.22630833	      0.00000000	      0.00000000	      0.00000000	   2532.05098433	     12.46339775	    -35.38399615	   -265.70440674	   -414.11932924	   -655.26265759	      0.00000000	      0.00000000	     -0.00000000	  -3481.66746448	      0.00000000	     -0.00000000	      0.00000000	      0.00000000	      0.00000000	      0.00000000	      0.00000000	      0.00000000	      0.00000000
      2.00000000	      0.00000000	     -0.00000000	      0.00000000	      0.00000000	      0.00000000	      0.00000000	      0.00000000	      0.00000000	      0.00000000	     10.85855198	     52.21221161	   -309.68411255	   -352.63935290	  -1178.25271438	      0.00000000	      0.00000000	      0.00000000	   2760.91579185	     11.69942182	    -33.40813930	   -260.77532959	   -414.51913957	   -653.79820571	      0.00000000	      0.00000000	     -0.00000000	  -3559.21085287	      0.00000000	     -0.00000000	      0.00000000	      0.00000000	      0.00000000	      0.00000000	      0.00000000	      0.00000000	      0.00000000
      2.01000000	      0.00000000	     -0.00000000	      0.00000000	      0.00000000	      0.00000000	      0.00000000	      0.00000000	      0.00000000	      0.00000000	     13.59844971	     52.52969742	   -307.49337769	   -355.31562852	  -1178.85672210	      0.00000000	      0.00000000	      0.00000000	   3023.77535569	     10.31333333	    -34.75599761	   -257.67388916	   -414.41779898	   -656.06261126	      0.00000000	      0.00000000	     -0.00000000	  -3733.62028937	      0.00000000	     -0.00000000	      0.00000000	      0.00000000	      0.00000000	      0.00000000	      0.00000000	      0.00000000	      0.00000000
      2.02000000	      0.00000000	     -0.00000000	      0.00000000	      0.00000000	      0.00000000	      0.00000000	      0.00000000	      0.00000000	      0.00000000	     12.75090790	     55.86619568	   -312.13421631	   -357.81950318	  -1177.33060612	      0.00000000	      0.00000000	      0.00000000	   3475.46262675	      9.95498044	    -37.36972133	   -259.12335205	   -412.28077577	   -652.31180203	      0.00000000	      0.00000000	     -0.00000000	  -3612.85567003	      0.00000000	     -0.00000000	      0.00000000	      0.00000000	      0.00000000	      0.00000000	      0.00000000	      0.00000000	      0.00000000
      2.03000000	      0.00000000	     -0.00000000	      0.00000000	      0.00000000	      0.00000000	      0.00000000	      0.00000000	      0.00000000	      0.00000000	     10.85789204	     57.51487732	   -320.66397095	   -357.56068765	  -1177.40574895	      0.00000000	      0.00000000	      0.00000000	   3568.80336832	     12.25150045	    -39.98653519	   -259.36505127	   -412.44140136	   -652.64199475	      0.00000000	      0.00000000	     -0.00000000	  -3928.00609855	      0.00000000	     -0.00000000	      0.00000000	      0.00000000	      0.00000000	      0.00000000	      0.00000000	      0.00000000	      0.00000000
